<svg xmlns="http://www.w3.org/2000/svg" viewBox="900 170 300 300">
<g>
<path d="M 755.06 406.97 C753.80,407.64 732.94,408.00 694.72,408.00 C689.83,408.00 685.34,408.00 681.21,408.01 C642.76,408.04 635.62,408.04 633.54,404.80 C632.84,403.72 632.71,402.26 632.15,400.32 C630.81,395.62 626.07,391.00 622.58,391.00 C621.33,391.00 619.56,390.17 618.64,389.15 C617.15,387.51 616.99,384.55 617.23,362.95 L 617.50 338.59 L 622.50 336.82 C628.30,334.76 630.52,332.43 632.16,326.65 C632.71,324.73 632.84,323.29 633.53,322.21 C635.60,318.96 642.78,318.96 681.80,318.99 C686.00,319.00 690.57,319.00 695.53,319.00 C742.66,319.00 754.97,319.26 755.83,320.29 C756.41,321.00 757.34,323.59 757.89,326.04 C759.01,331.01 763.23,335.54 767.74,336.61 C769.45,337.02 770.68,337.31 771.59,338.03 C774.00,339.95 774.00,344.90 774.00,363.15 L 774.00 363.22 C774.00,377.05 773.59,386.90 772.97,388.06 C772.38,389.16 770.01,390.47 767.45,391.12 C762.00,392.49 758.53,396.29 757.64,401.88 C757.23,404.39 756.25,406.33 755.06,406.97 ZM 640.51 395.38 L 642.03 399.00 L 747.91 399.00 L 750.00 394.26 C752.62,388.35 755.04,385.74 759.98,383.51 C762.24,382.49 764.05,380.88 764.35,379.63 C765.17,376.23 765.08,347.62 764.25,346.38 C763.84,345.77 761.70,344.36 759.50,343.24 C754.47,340.69 752.61,338.63 749.99,332.71 L 747.91 328.00 L 641.22 328.00 L 640.56 331.52 C639.75,335.86 634.96,341.47 629.84,344.08 L 626.00 346.04 L 626.00 381.80 L 629.23 382.93 C632.28,383.99 639.00,389.59 639.00,391.07 C639.00,391.45 639.68,393.39 640.51,395.38 ZM 746.47 392.25 L 745.78 395.00 L 644.95 395.00 L 643.95 392.36 C642.35,388.17 637.46,382.56 633.57,380.47 L 630.00 378.55 L 630.00 349.05 L 632.75 347.61 C636.74,345.52 641.66,340.07 643.46,335.75 L 645.03 332.00 L 745.50 332.01 L 747.35 336.50 C749.22,341.06 752.25,344.14 757.87,347.20 L 761.00 348.91 L 761.00 378.60 L 756.60 380.74 C751.81,383.07 747.55,387.90 746.47,392.25 ZM 438.15 296.97 C431.86,298.72 428.07,297.66 420.45,292.00 C407.90,282.66 397.26,268.88 388.07,250.06 C377.93,229.28 374.03,207.71 377.06,189.03 C379.19,175.93 383.19,172.00 394.42,172.00 C398.49,172.00 402.27,172.60 404.09,173.54 L 407.07 175.09 L 404.47 178.29 C393.34,192.01 388.89,199.87 386.33,210.37 C384.89,216.28 384.83,218.10 385.91,223.32 C388.23,234.59 393.52,242.41 403.70,249.68 C411.43,255.20 421.02,258.89 429.72,259.70 C433.20,260.03 435.83,260.51 435.57,260.77 C434.87,261.47 439.59,270.51 444.62,278.13 C447.03,281.78 449.00,285.49 449.00,286.38 C449.00,289.12 442.07,295.89 438.15,296.97 ZM 976.86 464.26 C972.10,467.83 968.31,468.35 963.38,466.10 C957.23,463.29 945.66,451.80 939.10,441.98 C930.99,429.87 928.04,423.19 927.30,415.34 L 926.69 408.73 L 931.09 411.27 C938.27,415.40 950.00,419.13 957.69,419.72 C964.59,420.26 964.92,420.40 966.11,423.39 C968.26,428.79 975.70,439.69 980.95,445.14 C983.73,448.02 986.00,450.88 986.00,451.49 C986.00,453.64 980.18,461.76 976.86,464.26 ZM 651.10 461.75 C642.02,469.69 639.14,470.02 632.48,463.87 C630.01,461.60 628.00,458.93 628.00,457.94 C628.00,456.89 633.42,451.33 641.05,444.57 L 654.10 433.00 L 662.80 433.03 L 671.50 433.05 L 684.25 444.60 C691.59,451.24 697.00,456.91 697.00,457.94 C697.00,458.93 694.99,461.60 692.52,463.87 C685.90,469.98 682.68,469.69 674.68,462.28 C673.68,461.36 672.77,460.51 671.94,459.74 C665.34,453.60 663.70,452.08 662.49,452.37 C661.94,452.50 661.48,453.01 660.68,453.62 C659.34,454.65 655.03,458.31 651.10,461.75 ZM 492.00 735.02 C491.17,735.54 485.65,735.98 479.73,735.98 C469.07,736.00 468.94,735.97 467.98,733.43 C466.91,730.63 466.63,714.12 467.61,711.58 C468.12,710.26 470.23,710.00 480.59,710.00 C481.37,710.00 482.12,710.00 482.82,710.00 C488.52,709.98 491.42,709.97 492.84,711.41 C494.30,712.90 494.18,715.95 493.94,722.15 C493.91,722.89 493.88,723.67 493.85,724.50 C493.59,731.64 493.12,734.32 492.00,735.02 ZM 670.70 291.09 C663.66,294.34 657.04,297.00 655.99,297.00 C653.70,297.00 651.66,293.64 652.45,291.17 C653.03,289.33 699.02,266.99 702.21,267.00 C704.43,267.00 706.29,270.50 705.47,273.10 C704.83,275.12 700.73,277.24 670.70,291.09 ZM 668.44 257.07 C658.72,266.11 649.81,273.63 648.63,273.79 C647.45,273.95 645.93,273.53 645.24,272.84 C642.11,269.71 643.88,267.31 661.73,250.55 C677.47,235.77 679.80,233.94 682.48,234.20 C685.04,234.46 685.55,234.97 685.80,237.57 C686.08,240.40 684.66,241.99 668.44,257.07 ZM 693.00 381.00 C693.00,382.33 693.67,383.00 695.00,383.00 C696.10,383.00 697.00,382.33 697.00,381.51 C697.00,380.70 698.52,379.39 700.37,378.62 C704.58,376.86 707.00,373.49 707.00,369.39 C707.00,364.81 704.30,362.17 697.59,360.18 C691.00,358.23 688.84,356.10 690.93,353.58 C692.60,351.58 698.36,351.52 700.00,353.50 C701.62,355.45 704.90,355.42 705.66,353.45 C706.40,351.51 702.65,347.38 699.41,346.57 C698.08,346.23 697.00,345.30 697.00,344.48 C697.00,342.26 693.23,342.70 692.50,345.00 C692.15,346.10 691.26,347.00 690.52,347.00 C688.36,347.00 684.00,352.92 684.00,355.85 C684.00,360.17 686.61,362.83 692.55,364.56 C698.10,366.17 701.00,368.17 701.00,370.37 C701.00,374.35 692.46,375.46 688.93,371.93 C687.29,370.29 686.57,370.11 685.43,371.06 C684.64,371.71 684.00,372.83 684.00,373.55 C684.00,375.32 688.82,379.00 691.13,379.00 C692.33,379.00 693.00,379.71 693.00,381.00 ZM 1140.67 400.43 C1134.72,406.79 1129.28,412.00 1128.58,412.00 C1127.12,412.00 1124.00,408.83 1124.00,407.35 C1124.00,406.35 1144.31,383.16 1146.40,381.77 C1148.83,380.14 1151.96,380.98 1152.57,383.43 C1153.40,386.71 1153.06,387.19 1140.67,400.43 ZM 1151.49 420.25 C1143.89,424.51 1137.15,428.00 1136.53,428.00 C1134.70,428.00 1133.00,425.77 1133.00,423.38 C1133.00,421.57 1135.63,419.62 1147.04,413.01 C1161.23,404.78 1164.28,403.88 1166.39,407.25 C1168.24,410.20 1166.09,412.07 1151.49,420.25 ZM 735.00 370.29 C740.58,372.34 746.24,366.40 744.09,360.74 C742.21,355.79 736.24,354.49 732.31,358.17 C728.26,361.98 729.67,368.33 735.00,370.29 ZM 650.47 370.05 C651.58,370.50 653.08,370.90 653.80,370.94 C655.99,371.04 660.00,366.24 660.00,363.50 C660.00,360.23 655.86,356.00 652.66,356.00 C644.75,356.00 643.03,367.03 650.47,370.05 ZM 600.79 722.16 L 600.50 730.31 L 596.34 730.70 C592.89,731.02 591.90,730.69 590.59,728.82 C588.71,726.14 588.52,721.88 590.20,720.20 C590.86,719.54 593.11,719.00 595.20,719.00 C598.59,719.00 599.00,718.73 599.00,716.50 C599.00,715.12 599.47,714.00 600.04,714.00 C600.70,714.00 600.97,716.99 600.79,722.16 ZM 513.00 726.81 C513.00,727.25 512.34,728.49 511.53,729.56 C510.12,731.42 510.06,731.39 510.03,728.83 C510.01,727.37 509.44,725.96 508.75,725.70 C507.88,725.37 508.10,724.77 509.46,723.72 C511.13,722.44 511.22,721.98 510.09,720.61 C509.18,719.51 509.12,719.00 509.90,719.00 C510.53,719.00 511.48,717.88 512.00,716.50 C513.25,713.23 515.00,713.30 515.00,716.62 C515.00,718.84 515.23,719.05 516.50,718.00 C517.33,717.32 518.00,716.14 518.00,715.38 C518.00,714.62 518.45,714.00 519.00,714.00 C519.55,714.00 520.00,715.12 520.00,716.50 C520.00,717.88 520.56,719.01 521.25,719.03 C522.01,719.05 521.82,719.58 520.75,720.39 C518.70,721.95 518.49,723.60 520.25,724.42 C521.23,724.87 521.22,725.13 520.19,725.60 C519.46,725.94 518.45,727.31 517.94,728.67 C516.85,731.53 514.94,730.95 515.71,728.00 C516.07,726.61 515.74,726.00 514.62,726.00 C513.73,726.00 513.00,726.36 513.00,726.81 ZM 585.35 728.00 C583.63,731.44 582.00,731.93 582.00,729.00 C582.00,727.34 581.33,727.00 578.06,727.00 C575.89,727.00 573.89,726.63 573.61,726.18 C572.70,724.71 581.03,714.00 583.08,714.00 C584.74,714.00 585.00,714.74 585.00,719.50 C585.00,722.53 585.42,725.00 585.92,725.00 C586.43,725.00 586.17,726.35 585.35,728.00 ZM 570.50 724.98 L 570.50 730.31 L 566.31 730.70 C562.92,731.02 561.92,730.71 561.06,729.12 C559.56,726.31 560.79,723.99 564.15,723.32 C568.25,722.50 569.09,720.61 565.10,721.20 C563.35,721.46 561.68,721.29 561.39,720.82 C560.58,719.51 565.16,718.22 567.97,718.97 C570.28,719.58 570.50,720.12 570.50,724.98 ZM 673.96 380.96 C678.00,385.28 679.09,384.12 675.47,379.37 C671.52,374.19 670.09,369.56 670.04,361.75 C669.99,354.06 668.46,352.76 667.44,359.55 C666.16,368.08 668.21,374.80 673.96,380.96 ZM 555.28 723.48 C553.24,727.62 551.29,731.00 550.95,731.00 C549.20,731.00 549.44,729.29 552.00,723.68 L 554.81 717.50 L 550.91 716.69 C545.05,715.48 546.20,714.00 553.00,714.00 C556.30,714.00 559.00,714.44 559.00,714.98 C559.00,715.52 557.33,719.35 555.28,723.48 ZM 715.00 380.25 C715.00,381.72 716.53,380.90 718.29,378.47 C722.25,373.04 723.81,365.28 722.38,358.12 C721.26,352.57 720.00,354.81 720.00,362.33 C720.00,368.17 719.49,370.66 717.50,374.58 C716.13,377.29 715.01,379.84 715.00,380.25 ZM 544.02 729.48 C542.25,731.61 538.38,731.38 536.00,729.00 C530.97,723.97 535.95,716.51 542.64,719.05 C545.89,720.29 545.03,721.36 540.73,721.44 C538.09,721.49 537.44,721.94 537.16,723.94 C536.70,727.20 539.48,729.34 542.06,727.73 C544.39,726.28 545.70,727.45 544.02,729.48 ZM 530.79 722.17 C530.60,727.60 530.08,730.48 529.25,730.75 C528.33,731.06 528.00,729.39 528.00,724.52 C528.00,718.32 527.86,717.91 526.00,718.50 C523.32,719.35 523.46,717.49 526.22,715.56 C530.54,712.53 531.10,713.36 530.79,722.17 ZM 593.05 727.56 C594.63,729.46 595.35,729.38 597.44,727.07 C599.99,724.25 598.66,720.79 595.16,721.19 C592.16,721.54 590.99,725.07 593.05,727.56 ZM 577.00 724.53 C577.00,724.87 578.01,725.00 579.25,724.82 C580.86,724.59 581.59,723.72 581.82,721.75 C581.99,720.24 581.70,719.00 581.18,719.00 C580.26,719.00 577.00,723.31 577.00,724.53 ZM 563.50 728.00 C564.27,729.25 565.08,729.24 567.00,727.98 C568.33,727.11 568.33,726.89 567.00,726.02 C566.17,725.47 565.19,725.02 564.81,725.02 C563.68,724.99 562.83,726.92 563.50,728.00 ZM 514.00 722.58 C514.00,724.35 516.15,724.04 516.77,722.19 C516.99,721.53 516.45,721.00 515.58,721.00 C514.71,721.00 514.00,721.71 514.00,722.58 Z" fill="rgb(18,107,63)"></path>

<path d="M 566.50 342.58 C547.33,345.98 528.45,342.38 513.55,332.49 C501.62,324.57 494.14,311.73 493.26,297.70 C492.71,288.79 493.84,286.00 498.04,286.00 C500.70,286.00 501.67,288.44 502.23,296.59 C503.40,313.81 517.64,327.89 538.57,332.55 C547.82,334.61 560.19,334.24 562.58,331.85 C565.06,329.37 564.50,324.11 561.09,317.65 C556.30,308.57 557.03,299.06 563.08,291.72 C567.53,286.32 573.09,283.81 582.16,283.10 L 589.82 282.50 L 581.91 273.20 C572.48,262.11 566.77,253.87 563.16,246.17 C560.57,240.66 560.51,240.04 560.74,223.78 C561.03,203.66 559.71,196.08 553.83,184.19 C548.68,173.75 537.83,161.91 527.58,155.52 C523.59,153.03 519.88,151.00 519.32,151.00 C518.69,151.00 518.83,153.06 519.72,156.53 C520.85,160.98 520.90,163.17 519.96,167.67 C518.88,172.92 518.15,173.92 508.59,183.39 L 498.38 193.50 L 489.60 211.50 C479.09,233.03 474.03,240.91 465.77,248.55 C458.39,255.38 452.05,258.53 442.33,260.16 L 435.53 261.30 C435.48,261.03 435.49,260.85 435.57,260.77 C435.83,260.51 433.20,260.03 429.72,259.70 C421.02,258.89 411.43,255.20 403.70,249.68 C393.52,242.41 388.23,234.59 385.91,223.32 C384.83,218.10 384.89,216.28 386.33,210.37 C388.89,199.87 393.34,192.01 404.47,178.29 L 407.07 175.09 L 406.92 175.01 L 420.21 161.35 C446.88,133.96 459.53,126.76 480.84,126.84 C492.94,126.89 501.40,129.36 510.61,135.54 C514.29,138.00 518.69,140.39 520.40,140.85 C523.25,141.61 523.99,141.22 529.58,136.03 C550.46,116.64 564.17,126.83 557.08,156.47 L 555.17 164.43 L 557.95 167.97 C562.20,173.37 566.73,181.89 569.69,190.09 C572.22,197.09 572.39,198.61 572.60,217.50 C572.85,239.69 573.12,240.92 580.01,250.94 C582.11,254.00 589.48,263.25 596.38,271.50 C612.22,290.43 614.47,294.34 614.49,303.00 C614.50,308.11 613.90,310.72 611.71,315.19 C605.25,328.34 588.05,338.76 566.50,342.58 ZM 1090.83 484.03 C1068.15,490.46 1044.10,484.78 1030.32,469.76 C1024.90,463.84 1022.18,458.40 1020.41,449.88 C1018.80,442.19 1019.30,438.45 1022.12,436.94 C1025.64,435.05 1027.66,437.30 1028.24,443.76 C1029.02,452.27 1032.32,459.07 1038.57,464.98 C1048.07,473.96 1063.20,479.08 1075.67,477.52 C1084.87,476.37 1087.09,472.24 1082.61,464.59 C1078.73,457.98 1077.66,452.59 1079.05,446.77 C1081.27,437.55 1089.33,431.23 1100.15,430.25 L 1105.94 429.73 L 1099.61 422.61 C1090.83,412.73 1086.38,406.67 1082.71,399.58 L 1079.56 393.50 L 1079.42 376.00 C1079.29,359.99 1079.06,357.88 1076.72,351.19 C1073.34,341.54 1067.15,332.23 1059.37,325.10 C1053.37,319.60 1041.45,312.22 1040.35,313.32 C1040.07,313.60 1040.40,314.88 1041.09,316.16 C1044.40,322.34 1040.99,336.81 1035.35,340.50 C1031.43,343.07 1025.36,349.72 1022.56,354.50 C1021.14,356.91 1017.47,364.87 1014.39,372.19 C1007.25,389.16 1002.39,397.44 994.85,405.51 C987.97,412.85 977.91,418.55 969.91,419.61 C967.21,419.96 965.00,420.47 965.00,420.73 C965.00,420.89 965.10,421.21 965.28,421.66 C964.36,420.31 962.90,420.13 957.69,419.72 C950.00,419.13 938.27,415.40 931.09,411.27 L 926.69 408.73 L 927.27 414.99 C926.68,408.66 926.54,408.51 920.37,402.73 C911.84,394.75 908.55,387.99 908.59,378.54 C908.64,365.46 914.05,357.26 933.83,340.29 C941.35,333.84 951.55,324.71 956.50,320.01 C973.55,303.80 980.58,298.76 991.25,295.09 C1004.60,290.49 1016.45,291.51 1030.50,298.44 C1031.11,298.74 1031.68,299.03 1032.23,299.30 C1038.26,302.29 1040.90,303.60 1043.11,303.08 C1045.04,302.64 1046.64,300.83 1049.87,297.55 C1062.89,284.36 1071.99,284.66 1075.06,298.37 C1076.12,303.14 1076.08,305.56 1074.74,313.70 L 1073.16 323.37 L 1076.51 327.28 C1081.45,333.05 1086.79,343.86 1089.07,352.70 C1090.72,359.12 1091.03,363.07 1090.80,375.00 C1090.52,389.33 1090.55,389.57 1093.46,395.34 C1095.09,398.56 1101.16,406.84 1106.96,413.75 C1123.02,432.89 1125.94,436.99 1127.63,442.81 C1128.91,447.19 1128.98,449.03 1128.04,452.84 C1124.71,466.34 1110.14,478.55 1090.83,484.03 ZM 668.30 592.38 C637.01,599.43 606.04,582.57 595.95,553.00 C593.01,544.39 592.74,528.30 595.38,519.53 C601.53,499.16 617.33,484.47 638.50,479.45 C646.16,477.64 661.62,477.63 670.00,479.44 C694.55,484.73 711.85,503.71 714.86,528.66 C718.53,559.05 699.28,585.40 668.30,592.38 ZM 233.50 591.40 C225.85,594.01 212.78,594.37 205.40,592.18 C187.66,586.90 177.99,574.56 178.01,557.21 C178.03,543.66 184.49,533.68 197.26,527.48 C209.53,521.53 230.32,520.39 243.83,524.94 C247.19,526.07 250.18,527.00 250.47,527.00 C251.64,527.00 250.90,518.79 249.39,515.01 C247.34,509.91 243.64,507.26 236.52,505.83 C226.09,503.74 213.24,506.98 199.76,515.12 L 196.03 517.38 L 193.60 515.09 C189.90,511.62 184.00,501.52 184.00,498.67 C184.00,494.05 195.88,486.02 209.50,481.44 C215.56,479.40 220.19,478.62 228.58,478.24 C258.48,476.88 276.72,487.47 282.47,509.53 C283.71,514.30 284.00,522.33 284.00,551.71 C284.00,555.23 284.01,558.44 284.02,561.38 C284.08,581.54 284.10,588.55 280.79,590.92 C279.03,592.18 276.33,592.13 272.19,592.05 C271.05,592.02 269.81,592.00 268.45,592.00 C257.53,592.00 256.78,591.87 254.45,589.55 C252.92,588.01 252.00,585.95 252.00,584.05 C252.00,581.12 250.73,580.01 249.56,581.90 C248.39,583.79 238.28,589.77 233.50,591.40 ZM 466.57 592.91 C446.25,596.64 425.63,590.51 411.38,576.50 C399.70,565.02 394.58,552.48 394.62,535.50 C394.67,518.74 399.66,506.39 411.00,494.96 C423.17,482.69 437.45,477.41 456.00,478.29 C487.41,479.79 508.00,501.36 508.00,532.77 C508.00,539.90 507.66,542.04 506.35,543.13 C505.03,544.22 496.82,544.60 466.37,545.00 L 428.04 545.50 L 430.38 550.56 C435.22,561.00 446.15,566.79 458.95,565.70 C467.11,565.00 471.53,563.16 477.47,558.02 C484.15,552.25 485.76,552.57 494.67,561.44 C501.28,568.03 502.10,569.26 501.82,572.12 C501.55,574.80 500.29,576.28 494.50,580.69 C486.97,586.44 476.24,591.13 466.57,592.91 ZM 136.55 589.55 C134.21,591.88 133.50,592.00 122.00,592.00 C110.50,592.00 109.79,591.88 107.45,589.55 L 105.00 587.09 L 105.00 510.00 L 98.50 510.00 C88.79,510.00 88.00,508.88 88.00,495.15 C88.00,481.96 88.49,481.25 98.02,480.80 L 104.50 480.50 L 105.18 470.22 C105.56,464.57 106.41,458.27 107.07,456.22 C113.47,436.42 134.11,427.30 161.69,432.11 C170.17,433.58 171.00,434.87 171.00,446.61 C171.00,454.11 170.66,456.20 169.11,458.11 C167.29,460.36 167.01,460.40 161.30,459.22 C153.36,457.58 149.47,457.68 145.36,459.63 C140.47,461.95 138.85,465.69 139.21,473.79 L 139.50 480.50 L 152.50 480.76 C168.98,481.09 169.00,481.10 169.00,494.68 C169.00,503.64 168.08,507.58 165.60,509.23 C165.00,509.64 158.76,509.98 151.75,509.98 L 139.00 510.00 L 139.00 587.09 ZM 545.20 624.03 C539.63,626.13 524.18,627.56 519.50,626.41 C518.40,626.14 516.48,625.70 515.22,625.44 C510.24,624.37 509.00,621.71 509.00,612.12 C509.00,605.88 509.40,602.91 510.35,602.12 C511.17,601.45 514.90,601.10 519.74,601.25 C526.57,601.46 528.11,601.20 530.02,599.50 C534.96,595.11 535.00,594.67 535.00,538.25 C535.00,492.08 535.20,485.17 536.56,483.22 C538.03,481.12 538.80,481.00 551.40,481.00 C563.06,481.00 564.90,481.23 566.36,482.85 C567.88,484.53 568.04,489.71 568.04,539.89 C568.05,577.76 567.70,596.40 566.93,599.28 C563.86,610.64 555.51,620.16 545.20,624.03 ZM 340.56 590.58 C339.14,591.62 335.42,592.00 326.81,592.00 C316.33,592.00 314.77,591.77 313.00,590.00 C311.05,588.05 311.00,586.67 311.00,536.15 C311.00,487.20 311.10,484.22 312.83,482.65 C314.33,481.30 316.94,481.00 327.27,481.00 C339.17,481.00 339.97,481.13 341.44,483.22 C342.32,484.47 343.00,487.51 343.00,490.18 L 343.00 494.91 L 347.63 489.97 C354.08,483.06 361.23,479.77 370.98,479.21 C379.40,478.72 385.45,480.09 386.91,482.83 C387.73,484.36 386.74,500.19 385.48,505.72 C384.74,508.99 381.54,510.38 377.78,509.07 C373.34,507.53 364.08,507.75 358.84,509.54 C356.36,510.38 352.70,512.75 350.71,514.79 C344.06,521.60 343.67,523.83 343.05,558.33 C342.53,587.35 342.39,589.25 340.56,590.58 ZM 136.96 180.60 C136.46,181.92 135.68,183.00 135.22,183.00 C133.27,183.00 117.15,171.04 109.91,164.23 C99.86,154.78 93.97,146.90 88.46,135.55 C81.24,120.70 79.17,104.30 82.52,88.50 C84.13,80.86 90.01,67.87 94.76,61.42 C99.97,54.35 109.02,51.87 114.33,56.05 C118.43,59.27 118.99,63.22 116.80,73.51 C112.51,93.78 117.43,113.28 131.50,131.70 C136.15,137.80 148.13,150.33 155.45,156.77 C161.00,161.65 161.22,162.00 158.70,162.00 C156.75,162.00 154.06,163.84 148.92,168.71 C145.03,172.40 140.95,176.05 139.86,176.81 C138.77,177.58 137.46,179.28 136.96,180.60 ZM 643.50 560.64 C661.29,568.96 681.32,555.32 681.39,534.84 C681.45,518.17 667.81,506.32 650.87,508.33 C623.70,511.55 618.44,548.92 643.50,560.64 ZM 162.76 236.57 C156.36,238.28 155.52,238.28 150.66,236.54 C142.95,233.80 139.22,227.60 140.54,219.73 C141.59,213.41 146.55,204.35 152.26,198.32 C168.91,180.71 192.64,183.81 192.45,203.58 C192.32,216.69 178.10,232.49 162.76,236.57 ZM 364.21 249.39 C356.88,253.18 348.00,251.47 337.29,244.20 C325.94,236.49 323.81,228.21 330.88,219.27 C341.10,206.35 353.57,201.54 362.05,207.25 C367.83,211.15 369.28,214.89 369.67,226.87 C369.87,232.72 370.08,238.72 370.16,240.20 C370.33,243.62 367.79,247.54 364.21,249.39 ZM 559.99 467.14 C558.03,468.20 554.57,468.98 552.02,468.96 C538.53,468.84 529.56,456.16 534.55,444.23 C537.79,436.47 543.38,432.82 552.11,432.73 C559.33,432.66 564.93,435.97 568.09,442.17 C572.64,451.09 569.00,462.31 559.99,467.14 ZM 586.83 405.71 C586.24,406.42 585.00,407.00 584.08,407.00 C579.40,407.00 578.75,400.65 582.49,391.55 C583.84,388.28 584.84,385.51 584.72,385.39 C584.60,385.28 580.45,385.80 575.50,386.56 C564.81,388.19 555.62,390.81 547.79,394.45 C543.14,396.62 541.69,396.90 539.98,395.99 C538.49,395.19 537.97,394.09 538.19,392.18 C538.43,390.13 539.66,388.87 543.47,386.82 C549.95,383.33 560.21,380.13 569.89,378.57 C580.39,376.89 580.90,376.43 576.04,372.91 C571.42,369.56 570.79,366.51 574.38,364.87 C576.44,363.93 578.16,364.57 587.37,369.65 C593.21,372.87 598.23,376.26 598.54,377.19 C598.87,378.18 597.22,382.13 594.59,386.69 C592.11,390.99 589.59,396.73 588.99,399.46 C588.39,402.19 587.42,405.00 586.83,405.71 ZM 219.23 566.89 C226.48,570.48 236.72,569.23 243.97,563.87 C247.60,561.18 251.00,554.58 251.00,550.20 C251.00,545.27 245.24,542.74 232.80,542.20 C224.46,541.83 222.50,542.06 218.78,543.86 C213.62,546.36 211.00,550.37 211.00,555.77 C211.00,560.67 213.51,564.05 219.23,566.89 ZM 286.80 734.80 C285.52,736.08 263.90,736.56 262.67,735.33 C262.30,734.97 262.00,729.18 262.00,722.47 L 262.00 710.27 L 266.64 709.64 C273.71,708.67 283.90,708.88 286.07,710.04 C287.80,710.96 288.00,712.22 288.00,722.34 C288.00,729.76 287.59,734.01 286.80,734.80 ZM 432.70 523.20 C437.02,523.58 475.34,522.97 475.81,522.51 C476.55,521.80 472.65,514.24 470.20,511.62 C465.99,507.14 460.45,505.05 452.72,505.02 C448.99,505.01 444.49,505.61 442.72,506.35 C436.38,509.01 431.56,514.26 429.58,520.69 C428.98,522.64 429.31,522.91 432.70,523.20 ZM 622.89 667.44 C619.37,670.40 615.47,670.72 612.04,668.31 C610.33,667.11 609.51,666.97 609.23,667.81 C609.01,668.47 607.75,669.00 606.42,669.00 L 604.00 669.00 L 604.00 638.00 L 606.48 638.00 C609.24,638.00 610.59,641.12 609.75,645.52 C609.22,648.30 609.79,648.51 613.45,646.84 C616.80,645.32 623.52,647.24 625.09,650.17 C628.67,656.86 627.86,663.26 622.89,667.44 ZM 315.00 661.70 L 315.00 669.00 L 309.00 669.00 L 309.00 647.00 L 312.00 647.00 C313.65,647.00 315.00,647.48 315.00,648.06 C315.00,648.65 315.98,648.43 317.22,647.56 C320.20,645.47 323.28,645.59 326.14,647.92 C328.34,649.71 328.63,649.73 330.33,648.19 C332.99,645.80 339.49,646.05 342.09,648.64 C343.87,650.43 344.21,652.06 344.34,659.62 L 344.50 668.50 L 341.75 668.82 L 339.00 669.13 L 338.98 661.82 C338.97,652.95 338.34,651.75 333.90,652.18 L 330.50 652.50 L 329.92 669.00 L 324.00 669.00 L 324.00 662.08 C324.00,653.39 323.46,652.00 320.09,652.00 C315.89,652.00 315.00,653.70 315.00,661.70 ZM 283.75 665.58 C275.87,674.17 263.00,668.96 263.00,657.18 C263.00,652.15 265.92,648.40 271.05,646.87 C283.24,643.21 292.18,656.38 283.75,665.58 ZM 444.09 667.72 C438.81,671.27 434.54,670.69 429.25,665.68 C426.49,663.07 426.00,661.91 426.00,657.94 C426.00,652.10 428.63,648.49 434.05,646.87 C448.02,642.68 456.15,659.59 444.09,667.72 ZM 318.39 325.18 C317.59,326.47 311.36,326.13 310.20,324.74 C309.62,324.05 308.40,319.44 307.47,314.49 C304.23,297.26 308.47,281.00 316.19,281.00 C319.24,281.00 320.15,284.33 318.42,289.16 C316.00,295.96 315.60,305.48 317.33,315.43 C318.19,320.35 318.66,324.74 318.39,325.18 ZM 530.03 244.48 C525.14,247.01 521.23,246.43 517.40,242.60 C513.57,238.77 512.99,234.86 515.52,229.97 C519.32,222.62 530.87,221.97 534.45,228.91 C537.45,234.71 535.48,241.67 530.03,244.48 ZM 192.75 668.01 C188.62,670.53 184.38,670.53 180.24,668.00 C173.32,663.79 172.26,655.00 178.00,649.50 C180.45,647.16 181.89,646.63 186.07,646.57 C190.62,646.51 191.48,646.85 194.14,649.83 C196.37,652.32 197.04,653.96 196.81,656.33 L 196.50 659.50 L 188.75 659.79 C184.49,659.95 181.00,660.50 181.00,661.02 C181.00,661.53 182.18,662.73 183.62,663.67 C186.09,665.29 186.42,665.29 189.20,663.70 C191.40,662.44 192.63,662.27 194.07,663.04 C196.81,664.50 196.48,665.74 192.75,668.01 ZM 238.54 667.57 C235.56,669.52 229.27,670.31 226.42,669.08 C222.61,667.45 219.00,662.14 219.00,658.17 C219.01,650.07 226.09,644.67 234.02,646.72 C238.15,647.79 242.24,653.17 241.80,656.97 C241.51,659.41 241.20,659.52 233.00,660.00 L 224.50 660.50 L 226.75 662.75 C229.39,665.39 231.71,665.59 234.76,663.46 C236.45,662.27 237.44,662.16 238.98,662.99 C241.64,664.41 241.53,665.61 238.54,667.57 ZM 141.75 668.94 C139.41,668.90 135.84,669.17 133.81,669.54 C130.68,670.10 129.72,669.81 127.56,667.65 C124.71,664.80 124.28,661.37 126.41,658.46 C127.41,657.09 129.46,656.39 133.58,656.02 C139.71,655.47 141.48,653.86 138.01,652.01 C136.44,651.16 135.00,651.17 132.35,652.05 C129.40,653.02 128.54,652.96 127.28,651.71 C125.93,650.36 126.07,650.00 128.59,648.35 C130.36,647.19 133.23,646.50 136.29,646.50 C140.40,646.50 141.56,646.94 143.59,649.31 C145.73,651.79 146.00,653.07 146.00,660.57 L 146.00 669.02 ZM 369.96 668.16 C365.59,670.51 362.31,670.48 358.37,668.08 C354.06,665.45 352.00,662.20 352.00,658.03 C352.01,649.76 359.55,644.38 367.45,646.98 C371.69,648.38 375.19,653.16 374.77,657.00 C374.51,659.40 374.17,659.52 366.00,660.00 L 357.50 660.50 L 359.75 662.75 C362.38,665.38 364.71,665.59 367.74,663.47 C369.55,662.20 370.28,662.16 371.97,663.21 C374.60,664.86 374.18,665.90 369.96,668.16 ZM 536.50 668.73 C534.30,668.86 530.92,669.23 528.99,669.56 C524.12,670.40 520.00,667.18 520.00,662.55 C520.00,658.19 522.13,656.61 528.82,656.00 C535.00,655.44 536.55,653.66 532.47,651.81 C530.26,650.80 529.31,650.86 527.06,652.15 C524.76,653.47 524.05,653.51 522.50,652.37 C520.75,651.10 520.75,650.94 522.40,649.11 C524.49,646.80 529.44,645.74 533.92,646.63 C539.11,647.67 541.10,651.84 540.77,661.00 L 540.50 668.50 ZM 650.50 668.73 C648.30,668.86 644.92,669.23 642.99,669.56 C638.12,670.40 634.00,667.18 634.00,662.55 C634.00,658.19 636.13,656.61 642.82,656.00 C649.00,655.44 650.55,653.66 646.47,651.81 C644.26,650.80 643.31,650.86 641.06,652.15 C638.76,653.47 638.05,653.51 636.50,652.37 C634.73,651.08 634.73,650.96 636.47,649.04 C638.87,646.38 644.02,645.52 648.53,647.01 C653.39,648.61 655.19,652.86 654.79,661.82 L 654.50 668.50 ZM 403.00 661.62 L 403.00 669.00 L 397.00 669.00 L 397.00 638.00 L 400.00 638.00 C402.94,638.00 403.00,638.10 403.00,643.07 C403.00,647.89 403.11,648.10 405.25,647.33 C409.48,645.83 414.20,646.53 416.15,648.94 C417.64,650.78 418.00,652.96 418.00,660.18 L 418.00 669.13 L 415.25 668.82 C412.55,668.51 412.49,668.34 412.00,660.50 C411.51,652.61 411.46,652.50 408.69,652.18 C404.05,651.65 403.00,653.39 403.00,661.62 ZM 697.19 665.26 C696.91,668.66 696.61,669.00 693.94,669.00 L 691.00 669.00 L 691.00 638.00 L 697.00 638.00 L 697.00 655.42 L 701.29 651.21 C704.64,647.92 706.32,647.00 709.00,647.00 L 712.42 647.00 L 703.64 655.95 L 708.32 661.97 C710.89,665.29 713.00,668.23 713.00,668.50 C713.00,668.78 711.51,669.00 709.69,669.00 C706.99,669.00 705.84,668.27 703.44,665.01 C699.81,660.08 697.61,660.17 697.19,665.26 ZM 579.00 662.19 C579.00,668.79 578.92,669.00 576.50,669.00 L 574.00 669.00 L 574.00 638.00 L 576.90 638.00 C579.74,638.00 579.80,638.11 579.65,642.99 C579.51,647.58 579.66,647.92 581.50,647.25 C582.60,646.84 585.25,646.53 587.38,646.56 C593.53,646.63 595.00,649.26 595.00,660.18 L 595.00 669.13 L 592.25 668.82 C589.55,668.51 589.49,668.34 589.00,660.50 L 588.50 652.50 L 585.04 652.17 C580.27,651.72 579.00,653.82 579.00,662.19 ZM 1052.78 397.44 C1046.59,401.78 1038.00,396.88 1038.00,389.00 C1038.00,380.58 1047.72,375.84 1054.33,381.04 C1059.31,384.96 1058.51,393.43 1052.78,397.44 ZM 231.96 282.95 C228.02,293.16 227.09,294.35 224.56,292.45 C223.49,291.65 221.80,291.00 220.81,291.00 C220.71,291.00 220.62,291.00 220.53,291.00 C219.89,291.00 219.47,291.01 219.28,290.80 C218.93,290.39 219.48,289.19 221.09,285.66 C221.21,285.41 221.33,285.15 221.45,284.87 C224.48,278.24 227.00,268.76 227.00,263.99 C227.00,262.02 227.54,259.86 228.20,259.20 C230.12,257.28 233.82,257.79 235.09,260.16 C236.84,263.43 235.37,274.10 231.96,282.95 ZM 1121.55 614.55 C1118.76,617.33 1113.64,617.80 1110.65,615.53 C1107.84,613.41 1109.55,611.90 1113.96,612.61 C1117.18,613.12 1117.99,612.89 1118.91,611.18 C1119.94,609.25 1119.79,609.16 1116.46,609.70 C1109.72,610.79 1105.45,603.08 1109.56,597.22 C1110.89,595.32 1112.03,595.00 1117.56,595.00 L 1124.00 595.00 L 1124.00 603.55 C1124.00,611.29 1123.77,612.32 1121.55,614.55 ZM 472.75 788.41 C469.27,792.30 462.73,792.61 460.49,788.98 C459.33,787.11 461.65,785.47 463.40,786.92 C465.37,788.55 469.40,787.92 469.78,785.92 C470.02,784.68 469.41,784.43 466.99,784.79 C460.48,785.74 456.22,776.78 460.94,772.06 C462.47,770.53 464.20,770.13 468.94,770.20 L 475.00 770.28 L 475.00 778.09 C475.00,784.76 474.68,786.25 472.75,788.41 ZM 681.59 666.92 C678.96,669.38 672.71,670.50 669.42,669.08 C662.81,666.25 660.13,657.59 663.93,651.35 C667.49,645.51 677.27,644.46 681.93,649.43 L 684.19 651.83 L 681.99 653.01 C680.39,653.86 679.48,653.88 678.69,653.09 C678.09,652.49 675.91,652.00 673.84,652.00 C671.06,652.00 669.78,652.54 668.97,654.05 C667.29,657.20 668.22,661.09 671.19,663.30 C673.73,665.19 674.03,665.21 676.41,663.65 C679.46,661.65 681.39,661.56 682.87,663.34 C683.71,664.36 683.41,665.21 681.59,666.92 ZM 393.08 791.00 C392.58,791.00 391.56,791.21 390.83,791.46 C390.10,791.72 387.95,791.26 386.07,790.43 C382.95,789.08 382.78,788.79 384.19,787.38 C385.51,786.06 386.07,786.03 387.88,787.16 C389.43,788.13 390.46,788.20 391.69,787.42 C394.85,785.43 394.35,784.07 390.68,784.66 C384.36,785.69 379.89,778.30 383.73,773.16 C385.46,770.83 386.48,770.48 391.86,770.31 L 398.00 770.12 L 398.00 778.56 C398.00,785.67 397.68,787.32 396.00,789.00 C394.90,790.10 393.59,791.00 393.08,791.00 ZM 563.37 667.93 C560.03,670.55 555.44,670.57 551.18,667.97 C547.26,665.58 547.48,663.38 551.60,663.78 C559.43,664.54 560.50,664.47 560.50,663.14 C560.50,662.39 558.14,660.90 555.25,659.82 C549.51,657.68 547.49,655.16 548.45,651.34 C549.73,646.22 560.57,644.66 564.52,649.02 C566.06,650.72 566.03,650.92 564.02,651.99 C562.41,652.85 561.53,652.85 560.49,651.99 C558.65,650.46 554.50,651.13 554.50,652.96 C554.50,653.82 556.29,654.93 558.86,655.67 C564.69,657.36 566.00,658.63 566.00,662.55 C566.00,664.93 565.26,666.44 563.37,667.93 ZM 507.87 668.89 C503.83,670.30 502.24,670.24 498.33,668.54 C494.23,666.76 491.77,662.94 491.64,658.15 C491.39,648.55 502.69,642.89 510.78,648.56 C513.54,650.49 513.58,651.62 510.94,653.03 C509.42,653.85 508.51,653.84 507.50,653.00 C506.75,652.38 504.64,652.01 502.82,652.18 C496.36,652.80 495.37,661.39 501.44,664.16 C503.43,665.06 504.42,664.96 506.42,663.64 C509.27,661.78 509.95,661.68 511.85,662.89 C513.91,664.19 511.67,667.57 507.87,668.89 ZM 114.00 652.13 L 114.00 669.00 L 108.00 669.00 L 108.00 660.62 C108.00,653.07 107.80,652.18 106.00,651.71 C104.85,651.41 104.00,650.35 104.00,649.21 C104.00,648.07 104.85,647.01 106.00,646.71 C107.21,646.39 108.00,645.35 108.00,644.05 C108.00,640.55 112.49,636.82 116.27,637.19 C120.36,637.58 120.89,641.08 117.00,642.00 C113.37,642.86 113.60,646.40 117.31,646.82 C119.55,647.08 120.06,647.59 119.81,649.32 C119.59,650.86 118.69,651.59 116.75,651.82 ZM 209.25 675.89 C207.42,678.09 202.02,679.69 200.74,678.41 C200.33,678.00 200.00,676.65 200.00,675.40 C200.00,673.82 200.67,673.04 202.25,672.82 C204.43,672.51 204.51,672.11 204.78,659.75 L 205.06 647.00 L 211.00 647.00 L 211.00 660.39 C211.00,671.67 210.72,674.11 209.25,675.89 ZM 1042.55 608.55 C1041.00,610.09 1038.95,611.00 1037.00,611.00 C1032.67,611.00 1029.00,607.13 1029.00,602.55 C1029.00,597.72 1031.86,595.00 1036.93,595.00 C1044.19,595.00 1047.68,603.42 1042.55,608.55 ZM 414.08 783.08 C411.19,785.97 409.92,786.36 407.00,785.29 C398.18,782.07 399.82,770.00 409.07,770.00 C416.87,770.00 419.72,777.44 414.08,783.08 ZM 376.92 783.41 C372.94,786.76 370.53,786.68 366.92,783.08 C363.32,779.47 363.15,775.76 366.45,772.45 C371.52,767.39 380.00,770.69 380.00,777.73 C380.00,779.96 379.14,781.55 376.92,783.41 ZM 388.00 638.00 L 388.00 668.77 L 385.52 669.24 C384.16,669.50 382.81,669.48 382.52,669.19 C382.24,668.90 382.00,661.77 382.00,653.33 L 382.00 638.00 ZM 981.79 604.29 L 981.50 610.36 L 976.50 610.63 C970.23,610.98 968.00,609.76 968.00,605.99 C968.00,602.77 970.26,601.00 974.38,601.00 C975.75,601.00 977.14,600.58 977.46,600.07 C978.34,598.64 974.31,597.76 972.14,598.92 C970.70,599.69 969.91,599.60 969.04,598.55 C966.39,595.35 977.35,593.50 980.47,596.62 C981.68,597.83 982.02,599.75 981.79,604.29 ZM 378.41 726.58 C374.62,734.36 367.00,731.41 367.00,722.15 C367.00,716.18 369.22,713.71 374.16,714.18 C377.07,714.46 377.68,715.03 378.91,718.58 C380.19,722.29 380.15,723.03 378.41,726.58 ZM 463.16 661.57 C462.80,668.63 462.66,669.00 460.39,669.00 C459.08,669.00 457.93,668.66 457.85,668.25 C457.38,665.83 457.29,655.80 457.70,651.75 C458.13,647.53 458.46,647.00 460.59,647.00 C461.92,647.00 463.00,647.42 463.00,647.92 C463.00,648.43 464.37,648.16 466.04,647.33 C469.81,645.45 472.25,646.24 471.82,649.21 C471.59,650.81 470.58,651.61 468.20,652.10 C466.38,652.47 464.59,653.08 464.22,653.45 C463.84,653.83 463.36,657.48 463.16,661.57 ZM 160.00 662.39 C159.63,667.67 159.11,669.55 157.98,669.77 C155.07,670.32 154.50,668.13 154.81,657.55 C155.12,647.12 155.16,647.00 157.56,647.00 C158.90,647.00 160.00,647.48 160.00,648.06 C160.00,648.65 160.98,648.43 162.22,647.56 C163.44,646.70 165.50,646.00 166.79,646.00 C168.76,646.00 169.08,646.44 168.82,648.75 C168.57,650.89 167.91,651.57 165.82,651.81 C161.81,652.27 160.55,654.56 160.00,662.39 ZM 1052.80 604.74 C1052.58,608.97 1052.09,610.56 1050.95,610.77 C1048.43,611.25 1048.00,610.04 1048.00,602.42 L 1048.00 595.17 L 1054.41 595.12 C1062.41,595.06 1063.19,595.90 1062.80,604.15 C1062.56,609.24 1062.16,610.55 1060.75,610.81 C1059.24,611.10 1059.00,610.32 1059.00,605.07 C1059.00,599.01 1058.99,599.00 1056.05,599.00 C1053.16,599.00 1053.09,599.12 1052.80,604.74 ZM 307.00 726.73 C307.00,727.22 306.34,728.49 305.53,729.56 C304.09,731.47 304.06,731.47 304.03,729.45 C304.01,728.32 303.46,726.86 302.80,726.20 C301.88,725.28 302.03,724.69 303.52,723.61 C305.14,722.43 305.22,721.97 304.09,720.61 C303.18,719.51 303.12,719.00 303.90,719.00 C304.53,719.00 305.48,717.88 306.00,716.50 C307.25,713.23 309.00,713.30 309.00,716.62 C309.00,718.84 309.23,719.05 310.50,718.00 C311.33,717.32 312.00,716.14 312.00,715.38 C312.00,714.62 312.45,714.00 313.00,714.00 C313.55,714.00 314.00,715.12 314.00,716.50 C314.00,717.88 314.56,719.01 315.25,719.03 C316.01,719.05 315.82,719.58 314.75,720.39 C312.70,721.95 312.48,723.64 314.25,724.29 C315.11,724.61 314.80,725.43 313.25,726.91 C312.01,728.10 311.00,729.51 311.00,730.04 C311.00,730.57 310.52,731.00 309.94,731.00 C309.35,731.00 309.02,730.03 309.19,728.84 C309.36,727.66 308.94,726.49 308.25,726.26 C307.56,726.03 307.00,726.23 307.00,726.73 ZM 1024.14 609.07 C1020.20,612.29 1014.20,610.93 1012.11,606.35 C1010.49,602.80 1010.73,600.61 1013.07,597.63 C1014.74,595.52 1015.99,595.00 1019.45,595.00 C1024.52,595.00 1027.02,597.06 1024.96,599.54 C1024.08,600.61 1023.37,600.77 1022.64,600.04 C1021.07,598.47 1016.29,598.79 1015.64,600.51 C1014.87,602.51 1016.47,606.58 1018.31,607.29 C1019.11,607.60 1020.76,607.16 1021.97,606.31 C1023.66,605.12 1024.44,605.04 1025.33,605.96 C1026.23,606.86 1025.94,607.60 1024.14,609.07 ZM 460.80 394.80 C456.36,399.24 445.03,390.29 449.01,385.49 C450.97,383.12 457.28,383.60 459.83,386.31 C462.21,388.85 462.68,392.92 460.80,394.80 ZM 1087.31 607.80 C1084.75,611.25 1080.23,611.82 1076.92,609.12 C1074.81,607.40 1074.71,607.07 1076.17,606.50 C1077.09,606.14 1078.79,606.35 1079.94,606.97 C1082.01,608.08 1084.00,607.64 1084.00,606.09 C1084.00,605.65 1082.54,604.87 1080.76,604.36 C1073.45,602.26 1074.43,595.00 1082.03,595.00 C1086.40,595.00 1088.82,597.08 1086.60,598.92 C1085.63,599.72 1084.97,599.76 1084.53,599.05 C1083.62,597.58 1079.74,597.72 1080.23,599.20 C1080.46,599.87 1082.01,600.76 1083.69,601.20 C1088.58,602.47 1089.72,604.55 1087.31,607.80 ZM 961.80 604.84 C961.56,609.27 961.13,610.55 959.75,610.81 C958.24,611.10 958.00,610.32 958.00,605.04 C958.00,600.54 957.61,598.79 956.50,598.36 C955.67,598.05 955.00,597.21 955.00,596.50 C955.00,595.79 955.67,594.95 956.50,594.64 C957.33,594.32 958.00,593.24 958.00,592.23 C958.00,589.60 959.97,588.00 963.20,588.00 C966.51,588.00 967.14,590.89 964.00,591.71 C962.90,592.00 962.00,592.86 962.00,593.62 C962.00,594.38 962.90,595.00 964.00,595.00 C966.60,595.00 966.63,598.02 964.05,598.70 C962.45,599.12 962.04,600.24 961.80,604.84 ZM 434.00 663.00 C436.53,665.53 438.07,665.52 441.37,662.93 C444.16,660.73 444.77,657.30 442.96,653.93 C441.77,651.70 435.19,651.21 433.20,653.20 C431.30,655.10 431.76,660.76 434.00,663.00 ZM 271.19 662.96 C273.94,665.52 275.07,665.52 278.37,662.93 C281.16,660.73 281.77,657.30 279.96,653.93 C278.77,651.70 272.19,651.21 270.20,653.20 C268.21,655.19 268.76,660.70 271.19,662.96 ZM 1103.55 602.75 C1099.33,612.80 1097.10,613.53 1094.18,605.81 C1093.08,602.89 1091.70,599.26 1091.11,597.75 C1090.14,595.24 1090.25,595.00 1092.36,595.00 C1094.18,595.00 1094.97,595.87 1096.02,599.05 C1096.75,601.28 1097.69,603.31 1098.09,603.56 C1098.50,603.81 1099.60,601.98 1100.55,599.51 C1101.89,595.99 1102.77,595.00 1104.54,595.00 L 1106.81 595.00 ZM 612.34 663.52 C615.07,665.44 616.30,665.38 618.95,663.24 C621.43,661.23 622.02,655.93 620.03,653.53 C619.33,652.69 617.25,652.00 615.40,652.00 C609.19,652.00 607.10,659.86 612.34,663.52 ZM 994.73 609.75 C993.34,611.53 991.23,611.30 990.14,609.25 C989.63,608.29 988.07,604.69 986.67,601.25 L 984.14 595.00 L 986.49 595.00 C988.44,595.00 989.14,595.90 990.58,600.25 L 992.33 605.49 L 994.09 601.50 C995.06,599.30 995.89,596.94 995.93,596.25 C995.97,595.56 997.09,595.00 998.41,595.00 L 1000.83 595.00 L 998.27 601.75 C996.85,605.46 995.26,609.06 994.73,609.75 ZM 393.43 396.43 C391.28,398.58 388.78,398.40 385.56,395.87 C382.13,393.17 380.54,389.26 382.10,387.38 C384.00,385.09 389.78,385.69 392.55,388.45 C395.37,391.28 395.69,394.17 393.43,396.43 ZM 452.67 782.99 C451.07,786.34 448.25,786.77 447.10,783.82 C446.61,782.55 445.26,779.12 444.10,776.21 L 444.00 775.96 C442.45,772.06 441.88,770.62 442.31,770.19 C442.56,769.94 443.15,770.03 444.07,770.17 L 444.17 770.18 C445.72,770.41 446.75,771.72 447.76,774.76 C449.39,779.69 450.47,779.49 452.13,773.96 C453.07,770.82 453.80,770.00 455.64,770.00 L 457.97 770.00 L 455.91 775.25 C454.78,778.14 453.32,781.62 452.67,782.99 ZM 437.83 784.40 C436.58,785.28 434.86,786.00 434.00,786.00 C432.09,786.00 428.00,783.23 428.00,781.94 C428.00,780.64 431.36,780.76 432.71,782.11 C433.86,783.26 436.00,782.55 436.00,781.02 C436.00,780.54 434.42,779.64 432.50,779.00 C428.61,777.72 426.90,774.03 429.01,771.49 C430.55,769.63 437.36,769.53 438.87,771.34 C440.51,773.32 439.10,774.11 435.19,773.38 C430.59,772.51 431.25,774.83 436.04,776.38 C440.44,777.80 441.36,781.93 437.83,784.40 ZM 250.05 393.91 C248.60,396.61 245.02,396.59 241.55,393.86 C236.15,389.61 236.46,384.00 242.10,384.00 C246.26,384.00 248.51,385.39 249.95,388.87 C250.86,391.07 250.89,392.35 250.05,393.91 ZM 362.00 728.52 C362.00,730.86 359.89,731.31 359.32,729.10 C358.88,727.42 357.99,727.00 354.88,727.00 C352.75,727.00 351.00,726.51 351.00,725.91 C351.00,723.73 358.54,714.02 360.25,714.01 C361.68,714.00 362.00,714.89 362.00,718.80 C362.00,721.44 362.56,724.20 363.25,724.92 C364.25,725.98 364.25,726.34 363.25,726.71 C362.56,726.96 362.00,727.78 362.00,728.52 ZM 163.80 395.80 C159.77,399.83 150.28,392.09 153.00,387.00 C155.42,382.47 165.00,386.36 165.00,391.87 C165.00,393.37 164.46,395.14 163.80,395.80 ZM 339.75 729.25 C339.51,730.00 337.09,730.62 333.67,730.80 C326.70,731.17 326.38,729.99 332.00,724.50 C335.97,720.62 337.01,717.74 334.90,716.44 C334.30,716.07 332.73,716.34 331.41,717.05 C328.57,718.57 327.18,717.69 328.98,715.52 C330.49,713.71 336.10,713.50 337.80,715.20 C339.72,717.12 339.20,720.61 336.50,723.82 C333.30,727.62 333.35,728.00 337.08,728.00 C339.10,728.00 340.02,728.43 339.75,729.25 ZM 361.00 774.50 C361.00,784.33 360.87,785.00 359.00,785.00 C357.13,785.00 357.00,784.33 357.00,774.50 C357.00,764.67 357.13,764.00 359.00,764.00 C360.87,764.00 361.00,764.67 361.00,774.50 ZM 370.71 727.38 C372.19,728.85 375.49,727.40 376.37,724.89 C378.23,719.59 374.88,714.19 371.49,717.01 C369.96,718.28 369.38,726.04 370.71,727.38 ZM 386.08 728.25 C385.94,733.00 384.00,731.23 384.00,726.36 C384.00,723.11 383.47,721.32 382.25,720.39 C381.14,719.55 380.97,719.05 381.77,719.03 C382.48,719.01 383.48,717.88 384.00,716.50 C384.70,714.65 385.67,714.01 387.73,714.03 C390.43,714.06 390.45,714.10 388.50,715.65 C387.11,716.74 386.88,717.37 387.75,717.70 C389.27,718.27 389.41,720.70 387.95,721.18 C386.81,721.56 386.20,723.88 386.08,728.25 ZM 1007.79 602.74 C1007.56,608.99 1007.18,610.54 1005.85,610.79 C1003.66,611.21 1003.44,610.28 1003.83,602.02 C1004.12,595.83 1004.40,595.00 1006.12,595.00 C1007.93,595.00 1008.06,595.62 1007.79,602.74 ZM 348.00 721.94 C348.00,729.26 347.25,731.92 345.64,730.31 C345.29,729.95 345.00,727.32 345.00,724.45 C345.00,719.89 344.72,719.15 342.75,718.61 L 340.50 717.99 L 343.00 716.02 C347.39,712.55 348.00,713.28 348.00,721.94 ZM 324.79 722.17 C324.60,727.60 324.08,730.48 323.25,730.75 C322.33,731.06 322.00,729.39 322.00,724.52 C322.00,718.32 321.86,717.91 320.00,718.50 C317.32,719.35 317.46,717.49 320.22,715.56 C324.54,712.53 325.10,713.36 324.79,722.17 ZM 406.24 780.84 C408.22,782.82 411.37,781.75 412.43,778.73 C413.81,774.78 411.19,772.14 407.54,773.80 C404.77,775.06 404.10,778.70 406.24,780.84 ZM 1034.20 605.80 C1036.03,607.63 1038.81,607.23 1040.02,604.96 C1042.21,600.87 1038.83,596.95 1034.93,599.04 C1032.77,600.19 1032.37,603.97 1034.20,605.80 ZM 369.07 780.13 C370.59,782.97 374.22,782.18 375.43,778.73 C376.81,774.78 374.19,772.14 370.54,773.80 C367.81,775.04 367.37,776.95 369.07,780.13 ZM 387.50 779.64 C389.34,782.44 389.78,782.51 392.17,780.35 C395.59,777.25 393.34,772.12 389.14,773.46 C386.37,774.33 385.70,776.89 387.50,779.64 ZM 1113.66 605.17 C1115.82,607.57 1116.64,607.48 1118.50,604.64 C1121.12,600.65 1118.02,596.85 1113.93,599.04 C1111.56,600.30 1111.45,602.74 1113.66,605.17 ZM 464.57 780.07 C466.60,782.32 467.18,782.42 468.80,780.80 C470.58,779.02 470.29,774.05 468.36,773.31 C464.41,771.79 461.60,776.80 464.57,780.07 ZM 181.00 654.70 C181.00,656.29 189.56,656.52 190.53,654.96 C191.56,653.28 188.99,651.00 186.08,651.00 C183.20,651.00 181.00,652.60 181.00,654.70 ZM 225.66 655.33 C226.80,656.46 234.84,656.07 235.59,654.85 C236.49,653.39 233.30,651.00 230.46,651.00 C228.14,651.00 224.56,654.23 225.66,655.33 ZM 132.53 664.64 C134.86,666.35 135.07,666.34 137.78,664.44 C141.38,661.92 140.60,660.00 135.97,660.00 C131.28,660.00 129.49,662.42 132.53,664.64 ZM 358.66 655.33 C359.67,656.34 367.80,656.13 368.45,655.08 C369.32,653.67 366.14,651.00 363.58,651.00 C361.17,651.00 357.54,654.20 358.66,655.33 ZM 640.67 664.33 C642.13,665.79 646.95,664.95 647.96,663.07 C649.53,660.15 649.36,660.00 644.50,660.00 C640.80,660.00 640.00,660.33 640.00,661.83 C640.00,662.84 640.30,663.97 640.67,664.33 ZM 527.73 664.87 C529.55,665.89 530.42,665.63 533.25,663.19 C536.03,660.81 535.33,660.00 530.50,660.00 C526.70,660.00 526.00,660.31 526.00,661.95 C526.00,663.02 526.78,664.34 527.73,664.87 ZM 211.03 641.94 C209.74,644.35 207.74,644.60 206.04,642.55 C204.31,640.47 205.16,637.55 207.60,637.20 C210.59,636.77 212.44,639.32 211.03,641.94 ZM 1071.82 608.24 C1071.27,612.07 1067.00,611.71 1067.00,607.83 C1067.00,606.53 1067.74,606.00 1069.57,606.00 C1071.66,606.00 1072.08,606.42 1071.82,608.24 ZM 1007.82 590.24 C1007.45,592.85 1004.26,593.85 1003.41,591.62 C1002.60,589.51 1003.74,588.00 1006.13,588.00 C1007.64,588.00 1008.06,588.56 1007.82,590.24 ZM 424.56 782.10 C424.93,782.70 424.57,783.86 423.76,784.67 C422.46,785.97 422.09,785.95 420.63,784.49 C419.73,783.58 419.24,782.43 419.55,781.92 C420.34,780.65 423.74,780.77 424.56,782.10 ZM 972.50 607.00 C973.34,608.35 975.34,608.26 976.80,606.80 C978.65,604.95 978.23,604.00 975.56,604.00 C972.93,604.00 971.51,605.39 972.50,607.00 ZM 355.00 724.51 C355.00,724.86 355.79,725.00 356.75,724.81 C358.61,724.46 359.86,720.00 358.10,720.00 C357.13,720.00 355.00,723.10 355.00,724.51 ZM 308.00 722.58 C308.00,723.45 308.53,723.99 309.19,723.77 C311.04,723.15 311.35,721.00 309.58,721.00 C308.71,721.00 308.00,721.71 308.00,722.58 ZM 930.60 427.63 C929.87,426.07 929.20,424.22 928.65,422.29 C930.13,427.20 932.86,432.45 937.60,439.71 C934.87,435.66 932.45,431.53 930.60,427.63 ZM 438.15 296.97 C440.32,296.37 443.42,294.02 445.75,291.58 C445.64,291.72 445.51,291.85 445.39,291.99 C442.41,295.29 439.15,297.15 435.59,297.55 C436.41,297.42 437.25,297.22 438.15,296.97 ZM 950.37 455.63 C953.82,459.16 957.30,462.22 960.21,464.23 C957.20,462.22 953.81,459.22 950.37,455.63 ZM 966.31 423.88 C967.23,425.71 968.51,428.07 969.81,430.32 C968.31,427.89 967.07,425.64 966.31,423.88 ZM 966.89 467.26 C969.42,467.74 971.75,467.32 974.27,465.95 C971.69,467.40 969.45,467.81 966.89,467.26 ZM 420.45 292.03 C417.19,289.58 414.06,286.85 411.06,283.82 C414.07,286.85 417.20,289.57 420.45,292.00 C421.20,292.55 421.91,293.06 422.58,293.53 ZM 979.81 443.92 C980.29,444.44 980.74,444.93 981.18,445.38 C983.83,448.13 986.00,450.88 986.00,451.49 C986.00,450.88 983.72,448.02 980.95,445.14 C980.58,444.76 980.20,444.35 979.81,443.92 ZM 441.19 272.66 C442.33,274.56 443.55,276.51 444.62,278.13 C443.44,276.35 442.27,274.48 441.19,272.66 ZM 400.85 172.55 C402.18,172.80 403.28,173.13 404.01,173.50 L 404.09 173.54 C403.32,173.15 402.20,172.81 400.85,172.55 Z" fill="rgb(238,240,234)"></path>

<path d="M 640.51 395.38 C639.68,393.39 639.00,391.45 639.00,391.07 C639.00,389.59 632.28,383.99 629.23,382.93 L 626.00 381.80 L 626.00 346.04 L 629.84 344.08 C634.96,341.47 639.75,335.86 640.56,331.52 L 641.22 328.00 L 747.91 328.00 L 749.99 332.71 C752.61,338.63 754.47,340.69 759.50,343.24 C761.70,344.36 763.84,345.77 764.25,346.38 C765.08,347.62 765.17,376.23 764.35,379.63 C764.05,380.88 762.24,382.49 759.98,383.51 C755.04,385.74 752.62,388.35 750.00,394.26 L 747.91 399.00 L 642.03 399.00 ZM 746.47 392.25 C747.55,387.90 751.81,383.07 756.60,380.74 L 761.00 378.60 L 761.00 348.91 L 757.87 347.20 C752.25,344.14 749.22,341.06 747.35,336.50 L 745.50 332.01 L 645.03 332.00 L 643.46 335.75 C641.66,340.07 636.74,345.52 632.75,347.61 L 630.00 349.05 L 630.00 378.55 L 633.57 380.47 C637.46,382.56 642.35,388.17 643.95,392.36 L 644.95 395.00 L 745.78 395.00 ZM 259.28 402.74 C257.03,404.21 253.86,404.54 240.05,404.77 C219.26,405.10 213.39,403.40 206.29,395.00 C203.49,391.68 184.97,360.95 180.99,353.00 C177.13,345.32 172.61,333.92 173.25,333.51 C173.39,333.42 176.62,331.66 180.43,329.59 C195.30,321.54 206.10,311.08 215.38,295.73 C220.02,288.07 223.17,281.32 224.98,275.11 C224.02,278.48 222.79,281.95 221.45,284.87 C221.33,285.15 221.21,285.41 221.09,285.66 C219.48,289.19 218.93,290.39 219.28,290.80 C219.47,291.01 219.89,291.00 220.53,291.00 C220.62,291.00 220.71,291.00 220.81,291.00 C221.80,291.00 223.49,291.65 224.56,292.45 C226.26,293.73 227.24,293.61 228.90,290.29 C228.23,291.97 227.79,293.13 227.73,293.36 C227.46,294.36 237.09,301.53 244.75,306.05 C247.64,307.75 250.00,309.49 250.00,309.92 C250.00,312.15 240.58,324.18 233.23,331.33 L 224.83 339.50 L 225.44 344.83 C226.15,351.20 231.48,365.48 234.12,368.12 C235.28,369.28 237.44,370.01 239.75,370.03 C243.43,370.06 253.00,373.83 258.06,377.25 C261.85,379.81 265.17,386.39 265.25,391.48 C265.32,396.38 263.38,400.05 259.28,402.74 ZM 467.32 403.55 C462.27,405.35 437.10,405.37 431.37,403.57 C425.35,401.69 423.72,400.27 416.32,390.41 C412.64,385.51 404.96,376.55 399.25,370.50 C389.74,360.42 388.33,358.39 382.33,346.20 C375.83,333.02 375.78,332.85 376.44,326.69 L 377.11 320.48 L 383.30 318.67 C390.98,316.42 399.41,312.73 408.38,307.69 C415.65,303.60 416.95,303.75 416.98,308.74 C417.04,316.78 431.89,351.15 439.74,361.41 C444.14,367.16 444.62,367.43 452.50,368.88 C468.64,371.83 479.06,383.47 475.97,395.09 C474.82,399.40 472.44,401.72 467.32,403.55 ZM 693.00 381.00 C693.00,379.71 692.33,379.00 691.13,379.00 C688.82,379.00 684.00,375.32 684.00,373.55 C684.00,372.83 684.64,371.71 685.43,371.06 C686.57,370.11 687.29,370.29 688.93,371.93 C692.46,375.46 701.00,374.35 701.00,370.37 C701.00,368.17 698.10,366.17 692.55,364.56 C686.61,362.83 684.00,360.17 684.00,355.85 C684.00,352.92 688.36,347.00 690.52,347.00 C691.26,347.00 692.15,346.10 692.50,345.00 C693.23,342.70 697.00,342.26 697.00,344.48 C697.00,345.30 698.08,346.23 699.41,346.57 C702.65,347.38 706.40,351.51 705.66,353.45 C704.90,355.42 701.62,355.45 700.00,353.50 C698.36,351.52 692.60,351.58 690.93,353.58 C688.84,356.10 691.00,358.23 697.59,360.18 C704.30,362.17 707.00,364.81 707.00,369.39 C707.00,373.49 704.58,376.86 700.37,378.62 C698.52,379.39 697.00,380.70 697.00,381.51 C697.00,382.33 696.10,383.00 695.00,383.00 C693.67,383.00 693.00,382.33 693.00,381.00 ZM 735.00 370.29 C729.67,368.33 728.26,361.98 732.31,358.17 C736.24,354.49 742.21,355.79 744.09,360.74 C746.24,366.40 740.58,372.34 735.00,370.29 ZM 650.47 370.05 C643.03,367.03 644.75,356.00 652.66,356.00 C655.86,356.00 660.00,360.23 660.00,363.50 C660.00,366.24 655.99,371.04 653.80,370.94 C653.08,370.90 651.58,370.50 650.47,370.05 ZM 460.80 394.80 C462.68,392.92 462.21,388.85 459.83,386.31 C457.28,383.60 450.97,383.12 449.01,385.49 C445.03,390.29 456.36,399.24 460.80,394.80 ZM 250.05 393.91 C250.89,392.35 250.86,391.07 249.95,388.87 C248.51,385.39 246.26,384.00 242.10,384.00 C236.46,384.00 236.15,389.61 241.55,393.86 C245.02,396.59 248.60,396.61 250.05,393.91 ZM 715.00 380.25 C715.01,379.84 716.13,377.29 717.50,374.58 C719.49,370.66 720.00,368.17 720.00,362.33 C720.00,354.81 721.26,352.57 722.38,358.12 C723.81,365.28 722.25,373.04 718.29,378.47 C716.53,380.90 715.00,381.72 715.00,380.25 ZM 675.47 379.37 C675.64,379.60 675.81,379.82 675.96,380.03 C673.98,377.72 671.00,375.69 671.00,376.84 C671.00,377.35 672.33,379.20 673.96,380.96 C668.21,374.80 666.16,368.08 667.44,359.55 C668.46,352.76 669.99,354.06 670.04,361.75 C670.09,369.56 671.52,374.19 675.47,379.37 ZM 233.82 277.28 C235.06,272.80 235.78,268.35 235.83,264.98 C235.91,268.27 235.24,272.53 233.82,277.28 ZM 227.00 263.83 C227.00,266.28 226.42,269.65 225.48,273.27 C226.06,270.99 226.45,268.78 226.67,266.63 C226.77,265.58 226.88,264.65 227.00,263.83 ZM 233.84 258.80 C232.98,258.22 231.90,257.96 230.84,258.04 C231.09,258.01 231.36,258.00 231.64,258.00 C232.51,258.00 233.25,258.28 233.84,258.80 ZM 677.46 383.64 C677.05,383.73 676.02,383.07 674.50,381.53 C675.87,382.90 676.93,383.60 677.46,383.64 Z" fill="rgb(203,193,164)"></path>

<path d="M 136.96 180.60 C137.46,179.28 138.77,177.58 139.86,176.81 C140.95,176.05 145.03,172.40 148.92,168.71 C154.06,163.84 156.75,162.00 158.70,162.00 C161.22,162.00 161.00,161.65 155.45,156.77 C153.25,154.84 150.64,152.36 147.93,149.67 C154.48,156.04 160.41,161.00 162.02,161.00 C162.97,161.00 165.72,160.13 168.12,159.07 C180.59,153.56 203.07,149.00 217.77,149.00 C235.07,149.00 248.66,151.61 280.00,160.96 C304.89,168.38 318.11,171.60 335.09,174.38 C351.44,177.05 378.31,178.79 380.81,177.44 C379.05,180.08 377.91,183.84 377.06,189.03 C374.03,207.71 377.93,229.28 388.07,250.06 C394.88,264.00 402.48,275.17 411.06,283.82 C414.06,286.85 417.19,289.58 420.45,292.03 C424.38,294.76 425.96,295.71 427.43,296.38 C426.47,296.08 425.46,295.73 424.40,295.32 C423.62,295.02 423.00,295.39 423.01,296.14 C423.01,296.89 421.59,298.68 419.84,300.11 C417.23,302.26 416.72,303.27 416.81,306.48 C416.28,303.84 414.32,304.34 408.38,307.69 C399.41,312.73 390.98,316.42 383.30,318.67 L 377.11 320.48 L 376.44 326.69 C375.78,332.85 375.83,333.02 382.33,346.20 C384.04,349.68 385.38,352.32 386.63,354.57 C385.60,352.82 384.57,350.90 383.40,348.64 C379.59,341.24 377.48,338.12 376.79,338.81 C375.39,340.21 376.24,365.85 377.77,368.63 C378.65,370.23 380.29,370.93 384.34,371.44 C390.59,372.22 395.85,374.78 401.50,379.80 C406.92,384.62 407.92,386.62 407.96,392.73 C408.01,399.56 404.59,403.77 397.97,405.05 C392.96,406.02 371.18,406.05 363.50,405.10 C357.68,404.38 352.45,401.41 347.93,396.27 C342.29,389.85 326.67,353.67 321.27,334.53 L 318.72 325.50 L 318.06 325.49 C318.20,325.40 318.32,325.30 318.39,325.18 C318.66,324.74 318.19,320.35 317.33,315.43 C315.60,305.48 316.00,295.96 318.42,289.16 C320.15,284.33 319.24,281.00 316.19,281.00 C308.47,281.00 304.23,297.26 307.47,314.49 C308.40,319.44 309.62,324.05 310.20,324.74 C310.39,324.97 310.73,325.18 311.15,325.35 C296.89,325.00 273.39,320.23 262.50,315.44 C256.85,312.96 251.76,311.00 250.96,311.00 C250.52,311.00 247.91,314.09 245.16,317.88 C242.41,321.66 236.70,328.07 232.48,332.13 L 227.03 337.36 L 233.23 331.33 C240.58,324.18 250.00,312.15 250.00,309.92 C250.00,309.49 247.64,307.75 244.75,306.05 C237.09,301.53 227.46,294.36 227.73,293.36 C227.79,293.13 228.23,291.97 228.90,290.29 C229.70,288.67 230.67,286.29 231.96,282.95 C232.67,281.11 233.29,279.19 233.82,277.28 C235.24,272.53 235.91,268.27 235.83,264.98 C235.86,262.86 235.62,261.16 235.09,260.16 C234.79,259.60 234.36,259.15 233.84,258.80 C233.25,258.28 232.51,258.00 231.64,258.00 C231.36,258.00 231.09,258.01 230.84,258.04 C229.86,258.11 228.91,258.49 228.20,259.20 C227.56,259.84 227.03,261.90 227.00,263.83 C226.88,264.65 226.77,265.58 226.67,266.63 C226.45,268.78 226.06,270.99 225.48,273.27 C225.33,273.88 225.16,274.49 224.98,275.11 C223.17,281.32 220.02,288.07 215.38,295.73 C206.10,311.08 195.30,321.54 180.43,329.59 C176.62,331.66 173.39,333.42 173.25,333.51 C172.69,333.87 176.02,342.49 179.43,349.78 C177.34,345.58 175.83,342.12 175.04,339.68 C174.36,337.58 173.20,335.63 172.47,335.35 C170.43,334.57 153.96,340.13 151.97,342.26 C149.69,344.71 149.00,348.45 149.00,358.40 C149.00,366.66 150.51,371.00 153.38,371.00 C156.47,371.00 165.04,374.23 169.00,376.89 C174.84,380.81 177.99,386.20 177.99,392.32 C178.00,398.52 176.86,400.52 171.85,403.07 C168.08,405.00 166.41,405.13 149.64,404.83 C132.86,404.52 131.16,404.32 127.00,402.13 C118.58,397.71 115.44,392.39 110.48,374.08 C103.17,347.10 100.60,329.81 102.97,323.58 C103.50,322.18 107.80,316.64 112.53,311.27 C117.26,305.90 122.04,299.48 123.17,297.00 C126.49,289.69 126.61,281.17 123.55,269.00 C119.40,252.49 117.92,239.91 118.96,230.00 C120.54,214.96 123.48,205.32 130.42,192.48 C132.85,188.00 134.53,183.90 134.16,183.36 C133.92,183.01 132.15,181.62 129.71,179.86 C132.50,181.76 134.59,183.00 135.22,183.00 C135.68,183.00 136.46,181.92 136.96,180.60 ZM 441.19 272.66 C438.18,267.59 435.82,262.90 435.53,261.30 L 442.33 260.16 C452.05,258.53 458.39,255.38 465.77,248.55 C474.03,240.91 479.09,233.03 489.60,211.50 L 498.38 193.50 L 508.59 183.39 C518.15,173.92 518.88,172.92 519.96,167.67 C520.90,163.17 520.85,160.98 519.72,156.53 C518.83,153.06 518.69,151.00 519.32,151.00 C519.88,151.00 523.59,153.03 527.58,155.52 C537.83,161.91 548.68,173.75 553.83,184.19 C559.71,196.08 561.03,203.66 560.74,223.78 C560.51,240.04 560.57,240.66 563.16,246.17 C566.77,253.87 572.48,262.11 581.91,273.20 L 589.82 282.50 L 582.16 283.10 C573.09,283.81 567.53,286.32 563.08,291.72 C557.03,299.06 556.30,308.57 561.09,317.65 C564.50,324.11 565.06,329.37 562.58,331.85 C560.19,334.24 547.82,334.61 538.57,332.55 C517.64,327.89 503.40,313.81 502.23,296.59 C501.67,288.44 500.70,286.00 498.04,286.00 C493.84,286.00 492.71,288.79 493.26,297.70 C494.14,311.73 501.62,324.57 513.55,332.49 C518.92,336.06 524.81,338.80 531.05,340.70 C523.54,338.45 516.57,334.98 510.47,330.32 C507.51,328.06 504.32,326.50 502.51,326.43 C495.81,326.16 470.98,308.79 457.08,294.66 L 449.66 287.11 L 447.37 289.71 C448.36,288.41 449.00,287.21 449.00,286.38 C449.00,285.49 447.03,281.78 444.62,278.13 C443.55,276.51 442.33,274.56 441.19,272.66 ZM 966.31 423.88 C966.24,423.71 966.17,423.55 966.11,423.39 C965.82,422.66 965.58,422.09 965.28,421.66 C965.10,421.21 965.00,420.89 965.00,420.73 C965.00,420.47 967.21,419.96 969.91,419.61 C977.91,418.55 987.97,412.85 994.85,405.51 C1002.39,397.44 1007.25,389.16 1014.39,372.19 C1017.47,364.87 1021.14,356.91 1022.56,354.50 C1025.36,349.72 1031.43,343.07 1035.35,340.50 C1040.99,336.81 1044.40,322.34 1041.09,316.16 C1040.40,314.88 1040.07,313.60 1040.35,313.32 C1041.45,312.22 1053.37,319.60 1059.37,325.10 C1067.15,332.23 1073.34,341.54 1076.72,351.19 C1079.06,357.88 1079.29,359.99 1079.42,376.00 L 1079.56 393.50 L 1082.71 399.58 C1086.38,406.67 1090.83,412.73 1099.61,422.61 L 1105.94 429.73 L 1100.15 430.25 C1089.33,431.23 1081.27,437.55 1079.05,446.77 C1077.66,452.59 1078.73,457.98 1082.61,464.59 C1087.09,472.24 1084.87,476.37 1075.67,477.52 C1063.20,479.08 1048.07,473.96 1038.57,464.98 C1032.32,459.07 1029.02,452.27 1028.24,443.76 C1027.66,437.30 1025.64,435.05 1022.12,436.94 C1019.30,438.45 1018.80,442.19 1020.41,449.88 C1022.18,458.40 1024.90,463.84 1030.32,469.76 C1032.53,472.17 1035.00,474.33 1037.69,476.25 C1034.66,474.39 1032.17,473.40 1031.12,473.68 C1028.77,474.29 1012.21,467.86 1005.91,463.89 C1003.39,462.30 1000.95,461.00 1000.49,461.00 C1000.04,461.00 996.67,458.81 993.00,456.14 L 986.35 451.28 L 985.88 452.16 C985.88,452.15 985.89,452.13 985.89,452.12 C985.91,452.06 985.92,452.01 985.93,451.96 C985.98,451.79 986.00,451.63 986.00,451.49 L 986.00 451.49 C986.00,450.88 983.83,448.13 981.18,445.38 C980.74,444.93 980.29,444.44 979.81,443.92 C976.55,440.27 972.69,434.98 969.81,430.32 C968.51,428.07 967.23,425.71 966.31,423.88 ZM 162.76 236.57 C178.10,232.49 192.32,216.69 192.45,203.58 C192.64,183.81 168.91,180.71 152.26,198.32 C146.55,204.35 141.59,213.41 140.54,219.73 C139.22,227.60 142.95,233.80 150.66,236.54 C155.52,238.28 156.36,238.28 162.76,236.57 ZM 364.21 249.39 C367.79,247.54 370.33,243.62 370.16,240.20 C370.08,238.72 369.87,232.72 369.67,226.87 C369.28,214.89 367.83,211.15 362.05,207.25 C353.57,201.54 341.10,206.35 330.88,219.27 C323.81,228.21 325.94,236.49 337.29,244.20 C348.00,251.47 356.88,253.18 364.21,249.39 ZM 530.03 244.48 C535.48,241.67 537.45,234.71 534.45,228.91 C530.87,221.97 519.32,222.62 515.52,229.97 C512.99,234.86 513.57,238.77 517.40,242.60 C521.23,246.43 525.14,247.01 530.03,244.48 ZM 1052.78 397.44 C1058.51,393.43 1059.31,384.96 1054.33,381.04 C1047.72,375.84 1038.00,380.58 1038.00,389.00 C1038.00,396.88 1046.59,401.78 1052.78,397.44 ZM 393.43 396.43 C395.69,394.17 395.37,391.28 392.55,388.45 C389.78,385.69 384.00,385.09 382.10,387.38 C380.54,389.26 382.13,393.17 385.56,395.87 C388.78,398.40 391.28,398.58 393.43,396.43 ZM 163.80 395.80 C164.46,395.14 165.00,393.37 165.00,391.87 C165.00,386.36 155.42,382.47 153.00,387.00 C150.28,392.09 159.77,399.83 163.80,395.80 ZM 1168.66 456.50 C1166.75,460.35 1163.79,465.08 1162.10,467.00 C1158.13,471.51 1159.05,468.62 1164.34,460.00 C1166.53,456.42 1169.64,451.14 1171.24,448.25 C1176.81,438.20 1175.23,443.27 1168.66,456.50 ZM 952.40 260.68 C946.95,265.09 944.86,264.95 949.69,260.50 C951.79,258.58 954.06,257.01 954.75,257.00 C955.44,257.00 956.00,256.56 956.00,256.02 C956.00,255.48 957.12,254.76 958.50,254.41 C959.88,254.07 961.00,253.45 961.00,253.05 C961.00,252.65 963.25,251.09 966.00,249.60 C973.61,245.45 971.95,247.91 963.74,252.93 C959.76,255.37 954.65,258.86 952.40,260.68 ZM 892.43 377.49 C892.36,385.49 892.05,392.28 891.76,392.57 C890.10,394.24 890.04,369.60 891.70,365.23 C892.24,363.81 892.51,368.41 892.43,377.49 ZM 673.96 380.96 C672.33,379.20 671.00,377.35 671.00,376.84 C671.00,375.69 673.98,377.72 675.96,380.03 C677.55,382.24 677.98,383.52 677.46,383.64 C676.93,383.60 675.87,382.90 674.51,381.53 L 674.50 381.53 C674.33,381.35 674.15,381.16 673.96,380.96 ZM 1155.00 475.40 C1155.00,476.08 1153.65,478.15 1152.00,480.00 C1150.35,481.85 1149.00,482.92 1149.00,482.38 C1149.00,480.72 1155.10,472.99 1156.34,473.08 C1157.13,473.13 1157.10,473.32 1156.25,473.66 C1155.56,473.94 1155.00,474.72 1155.00,475.40 ZM 899.18 426.20 C899.74,427.68 900.00,429.48 899.76,430.20 C899.51,430.91 898.54,428.87 897.60,425.66 C896.66,422.45 896.09,419.30 896.32,418.66 C896.56,418.02 897.07,418.85 897.46,420.50 C897.85,422.15 898.62,424.71 899.18,426.20 ZM 920.75 469.79 C921.14,471.67 920.33,471.24 918.07,468.37 C916.93,466.92 916.01,465.00 916.03,464.12 C916.06,462.80 916.33,462.87 917.50,464.50 C918.29,465.60 919.28,466.97 919.72,467.54 C920.15,468.11 920.61,469.12 920.75,469.79 ZM 1122.79 255.50 C1126.85,258.27 1126.23,258.67 1121.25,256.51 C1119.46,255.73 1118.00,254.62 1118.00,254.05 C1118.00,252.51 1118.70,252.73 1122.79,255.50 ZM 1063.00 232.00 C1063.00,233.27 1059.97,233.27 1058.00,232.00 C1056.86,231.26 1057.28,231.03 1059.75,231.02 C1061.54,231.01 1063.00,231.45 1063.00,232.00 ZM 997.92 237.36 C997.69,237.56 996.15,238.01 994.50,238.36 L 991.50 239.01 L 994.34 237.42 C995.90,236.56 997.44,236.10 997.76,236.42 C998.07,236.74 998.15,237.16 997.92,237.36 ZM 85.52 128.67 C84.16,125.21 83.11,121.93 82.53,119.18 C82.03,116.77 81.65,114.13 81.41,111.40 C82.07,117.25 83.44,123.04 85.52,128.67 ZM 185.08 360.46 C189.41,368.02 195.76,378.63 200.46,386.15 C198.88,383.68 197.15,380.88 195.20,377.71 C191.44,371.59 188.02,365.74 185.08,360.46 ZM 416.98 308.64 C417.53,312.80 419.32,318.77 421.79,325.33 C418.94,317.95 417.00,311.64 416.98,308.74 C416.98,308.70 416.98,308.67 416.98,308.64 ZM 1056.19 484.68 C1067.03,487.44 1079.11,487.35 1090.82,484.03 C1078.99,487.38 1067.12,487.55 1056.19,484.68 ZM 259.28 402.74 C262.76,400.45 264.69,397.46 265.15,393.60 C265.00,395.43 264.51,397.10 263.64,398.42 C262.15,400.70 260.97,402.13 258.80,403.02 C258.97,402.93 259.13,402.84 259.28,402.74 ZM 586.41 336.68 C591.64,334.41 596.31,331.68 600.28,328.60 C596.14,331.94 591.98,334.37 586.41,336.68 ZM 126.11 177.32 C125.93,177.19 125.75,177.07 125.57,176.94 C121.87,174.40 117.82,171.20 113.90,167.76 C117.62,170.92 122.16,174.45 126.11,177.32 ZM 102.86 157.11 C100.78,154.86 98.93,152.69 97.45,150.72 C95.85,148.59 94.21,146.07 92.63,143.35 C95.57,148.28 98.83,152.66 102.86,157.11 ZM 119.02 109.11 C114.97,97.57 114.23,85.68 116.80,73.51 C114.25,85.55 115.03,97.58 119.02,109.11 ZM 400.85 172.55 C399.02,172.20 396.77,172.00 394.42,172.00 C393.71,172.00 393.03,172.02 392.38,172.05 C396.72,171.71 401.44,172.17 404.01,173.50 C403.28,173.13 402.18,172.80 400.85,172.55 ZM 430.82 345.92 C433.79,351.84 436.83,357.21 439.50,361.09 C437.04,357.78 433.93,352.23 430.82,345.92 ZM 950.37 455.63 C951.46,456.78 952.56,457.86 953.63,458.87 C953.13,458.42 952.62,457.95 952.10,457.46 C950.09,455.56 947.95,453.24 945.79,450.67 C947.28,452.38 948.82,454.05 950.37,455.63 ZM 983.06 457.20 L 983.07 457.18 C983.17,457.04 983.26,456.90 983.35,456.77 C983.36,456.76 983.36,456.75 983.37,456.75 C983.48,456.59 983.59,456.43 983.69,456.27 C982.57,458.24 981.03,460.19 979.34,461.90 C980.60,460.52 981.93,458.83 983.06,457.20 ZM 451.48 404.90 C455.74,404.85 459.83,404.67 462.91,404.34 C459.83,404.74 456.07,404.91 451.48,404.90 ZM 974.40 465.88 C973.14,466.64 971.93,467.16 970.84,467.38 C969.73,467.60 968.54,467.59 967.26,467.34 C969.67,467.77 971.82,467.33 974.27,465.95 C974.31,465.92 974.36,465.90 974.40,465.88 ZM 263.64 384.70 C262.30,381.58 260.26,378.74 258.06,377.25 C260.47,378.88 262.40,381.63 263.64,384.70 ZM 417.04 391.36 C419.77,394.98 421.68,397.37 423.37,399.05 C421.45,397.19 419.50,394.70 417.04,391.36 ZM 607.14 322.08 C609.00,319.89 610.53,317.59 611.71,315.19 C611.94,314.72 612.15,314.27 612.35,313.83 C611.14,316.70 609.41,319.45 607.14,322.08 ZM 436.36 297.44 C438.56,297.05 440.65,296.10 442.62,294.58 C440.65,296.15 438.63,297.09 436.36,297.44 ZM 381.00 177.17 C381.06,176.76 381.75,176.01 382.73,175.22 C382.10,175.79 381.53,176.43 381.00,177.17 ZM 473.51 381.41 C469.57,375.40 462.04,370.62 452.51,368.88 C462.07,370.63 469.59,375.39 473.51,381.41 ZM 446.92 367.66 C448.40,368.05 450.46,368.50 452.50,368.88 C450.03,368.42 448.29,368.09 446.92,367.66 ZM 409.18 381.63 C411.75,384.64 414.10,387.51 415.80,389.72 C414.05,387.46 411.71,384.60 409.18,381.63 ZM 427.55 402.12 C428.38,402.53 429.28,402.88 430.31,403.23 C429.32,402.93 428.41,402.56 427.55,402.12 Z" fill="rgb(249,231,204)"></path>

</g>
</svg>